<svg width="160" height="53" viewBox="0 0 160 53" fill="none" xmlns="http://www.w3.org/2000/svg">
<path d="M44.5866 34.556H19.04C19.68 39.485 22.2933 42.612 27.52 42.612C31.1466 42.612 34.08 40.969 36.16 38.425L43.04 41.87C39.8933 46.64 34.2933 49.608 27.6266 49.608C16.8 49.608 9.59998 42.453 9.59998 31.641C9.59998 20.564 16.5866 13.197 27.2533 13.197C37.8133 13.197 44.9066 20.246 44.9066 30.846C44.8533 32.118 44.7466 33.549 44.5866 34.556ZM19.04 28.567H35.4666C34.8266 23.267 32 20.193 27.2533 20.193C22.5066 20.193 19.7866 23.267 19.04 28.567Z" fill="white"/>
<path d="M112.427 13.886V48.972H103.84L103.627 43.672C101.12 47.382 97.2267 49.608 91.7867 49.608C82.24 49.608 74.88 42.4 74.88 31.588C74.88 20.564 82.24 13.197 91.7867 13.197C97.2267 13.197 101.173 15.423 103.627 19.133L103.84 13.833H112.427V13.886ZM103.52 31.376C103.52 25.069 99.5733 20.776 93.8133 20.776C88 20.776 84.1067 25.069 84.1067 31.482C84.1067 37.789 88 42.029 93.8133 42.029C99.6267 42.029 103.52 37.789 103.52 31.376Z" fill="white"/>
<path d="M116.32 3.604H125.227V48.972H116.32V3.604Z" fill="white"/>
<path d="M148.96 40.81V47.965C146.293 49.078 143.04 49.608 139.893 49.608C133.493 49.608 129.067 45.156 129.067 38.531V3.55103H137.973V13.833H148.373V21.041H137.973V36.676C137.973 39.856 139.947 41.976 142.773 41.976C144.907 42.029 146.933 41.658 148.96 40.81Z" fill="white"/>
<path d="M57.8133 40.8629L52.48 33.8669L41.2266 48.9719H51.84L57.8133 40.9689V40.8629Z" fill="#45A093"/>
<path d="M65.3867 30.952L78.0267 13.886H67.4133L60 23.797L52.5867 13.886H41.9733L54.6667 30.952L60 38.001L68.2133 48.972H78.8267L65.3867 30.952Z" fill="white"/>
</svg>
